<?xml version="1.0" encoding="utf-8"?>
<!-- Generator: Adobe Illustrator 22.1.0, SVG Export Plug-In . SVG Version: 6.00 Build 0)  -->
<svg version="1.1" id="Layer_1" xmlns="http://www.w3.org/2000/svg" xmlns:xlink="http://www.w3.org/1999/xlink" x="0px" y="0px"
	 viewBox="0 0 16 16" style="enable-background:new 0 0 16 16;" xml:space="preserve">
<style type="text/css">
	.st0{fill:url(#SVGID_1_);}
	.st1{fill:url(#SVGID_2_);}
</style>
<g>
	
		<linearGradient id="SVGID_1_" gradientUnits="userSpaceOnUse" x1="929.3286" y1="1555.0002" x2="940.3646" y2="1547.2559" gradientTransform="matrix(-0.9664 0.257 0.257 0.9664 514.3499 -1732.0739)">
		<stop  offset="0" style="stop-color:#05014A"/>
		<stop  offset="0" style="stop-color:#0021F3"/>
	</linearGradient>
	<path class="st0" d="M5.6,6.7L6,7l4.6,2.6c0.8,0.5,1.6,0.2,2.1-0.1c0.1-0.1,0.1-0.1,0.2-0.2c0.5-0.5,0.7-1.1,0.5-1.8c0,0,0,0,0-0.1
		c0,0,0,0,0-0.1c-0.2-0.8-0.8-1.3-1.6-1.4C11.2,6,10.4,6.2,9.9,7L8.7,6.3C9.1,5.7,9.6,5.2,10.2,5c0.6-0.3,1.2-0.4,1.8-0.3
		c1.3,0.2,2.4,1.1,2.7,2.3c0,0,0,0.1,0,0.1c0,0,0,0.1,0,0.1c0.2,0.9,0,1.9-0.5,2.6c-0.2,0.3-0.4,0.5-0.7,0.8
		c-0.4,0.3-0.7,0.5-1.2,0.6c-0.2,0-0.4,0.1-0.6,0.1c-0.7,0.1-1.3-0.1-1.9-0.4L5.3,8.2l-1.6-1C4.1,6.6,4.9,6.4,5.6,6.7z"/>
	
		<linearGradient id="SVGID_2_" gradientUnits="userSpaceOnUse" x1="944.1334" y1="1547.5311" x2="931.5695" y2="1556.954" gradientTransform="matrix(-0.9664 0.257 0.257 0.9664 514.3499 -1732.0739)">
		<stop  offset="1" style="stop-color:#00D100"/>
		<stop  offset="1" style="stop-color:#0F4124"/>
	</linearGradient>
	<path class="st1" d="M1.7,6.2c0.2-0.3,0.4-0.5,0.7-0.8C2.7,5.2,3.1,5,3.5,4.9c0.2-0.1,0.4-0.1,0.6-0.1C4.8,4.7,5.4,4.8,6,5.2
		l4.6,2.6l1.7,0.9c-0.4,0.7-1.2,0.9-1.9,0.5L10,8.9L5.4,6.4C4.5,5.9,3.7,6.2,3.2,6.5C3.2,6.6,3.1,6.6,3,6.7C2.6,7.2,2.4,7.8,2.5,8.5
		c0,0,0,0,0,0.1c0,0,0,0,0,0.1C2.8,9.4,3.4,9.9,4.2,10C4.8,10,5.6,9.8,6.1,9l1.2,0.7C7,10.3,6.5,10.7,5.9,11
		c-0.6,0.3-1.2,0.4-1.8,0.3c-1.3-0.1-2.4-1-2.8-2.3c0,0,0-0.1,0-0.1c0,0,0-0.1,0-0.1C1,7.9,1.1,7,1.7,6.2z"/>
</g>
</svg>
