<?xml version="1.0" encoding="utf-8"?>
<!-- Generator: Adobe Illustrator 22.1.0, SVG Export Plug-In . SVG Version: 6.00 Build 0)  -->
<svg version="1.1" id="Layer_1" xmlns="http://www.w3.org/2000/svg" xmlns:xlink="http://www.w3.org/1999/xlink" x="0px" y="0px"
	 viewBox="0 0 1080 1080" style="enable-background:new 0 0 1080 1080;" xml:space="preserve">
<style type="text/css">
	.st0{fill:url(#SVGID_1_);}
	.st1{fill:url(#SVGID_2_);}
</style>
<g>
	
		<linearGradient id="SVGID_1_" gradientUnits="userSpaceOnUse" x1="968.0734" y1="2326.8694" x2="1731.6233" y2="1791.0448" gradientTransform="matrix(-0.9664 0.257 0.257 0.9664 1423.7479 -1850.9338)">
		<stop  offset="0" style="stop-color:#05014A"/>
		<stop  offset="0" style="stop-color:#0021F3"/>
	</linearGradient>
	<path class="st0" d="M372,453.4l30.9,17.9l317.3,181.1c56.7,32.3,113.6,16.2,148-9.6c4.8-3.6,9.2-7.4,13.4-11.4
		c33.9-32.6,47.3-78.2,36-125.1c-0.3-1.3-0.6-2.5-1-3.8c-0.3-1.3-0.7-2.5-1.1-3.8c-15.1-52-56.4-87.1-110.6-93.9
		c-42.7-5.4-100.1,8.9-133.2,65.2l-82.1-48.4c24.1-40.9,59.1-72.8,101.1-92.1c39.1-18,82.7-24.6,126.1-19.2
		c91.7,11.5,164.6,73.6,190.2,161.9c0.6,1.9,1.1,3.9,1.6,5.9c0.5,2,1,3.9,1.5,5.9c15.7,65,2.9,130.3-33.6,182.4
		c-13.7,19.6-30.8,37.4-51,52.6c-24.3,18.3-51.6,31.5-80.4,39.2c-12.6,3.4-25.5,5.6-38.6,6.8c-46.1,4.1-92.3-6.2-133.5-29.7
		L355.5,554l-113.7-66C268.2,442.6,326.5,427.1,372,453.4z"/>
	
		<linearGradient id="SVGID_2_" gradientUnits="userSpaceOnUse" x1="1992.3856" y1="1810.0892" x2="1123.1156" y2="2462.0417" gradientTransform="matrix(-0.9664 0.257 0.257 0.9664 1423.7479 -1850.9338)">
		<stop  offset="1" style="stop-color:#00D100"/>
		<stop  offset="1" style="stop-color:#0F4124"/>
	</linearGradient>
	<path class="st1" d="M101.8,416.3c13.5-19.8,30.3-37.8,50.3-53.3c24.1-18.6,51.2-32.3,79.8-40.3c12.6-3.5,25.4-6,38.5-7.3
		c46-4.7,92.3,4.9,133.9,27.9l320,176.7l114.7,64.4c-25.8,45.9-83.8,62.2-129.7,36.4L678,603.3L358.2,426.7
		c-57.1-31.5-113.8-14.7-147.9,11.7c-4.7,3.6-9.1,7.5-13.2,11.6c-33.4,33.1-46.2,78.9-34.2,125.6c0.3,1.3,0.7,2.5,1,3.8
		c0.4,1.3,0.7,2.5,1.1,3.8c15.8,51.8,57.7,86.3,111.9,92.4c42.8,4.8,100-10.3,132.3-67l82.7,47.2c-23.5,41.3-58,73.6-99.8,93.5
		c-38.8,18.5-82.3,25.8-125.8,21C174.6,759.9,100.8,698.9,74,610.9c-0.6-1.9-1.2-3.9-1.7-5.9c-0.5-1.9-1.1-3.9-1.6-5.9
		C54,534.5,65.9,469,101.8,416.3z"/>
</g>
</svg>
